<?xml version="1.0"?><svg xmlns="http://www.w3.org/2000/svg" width="49" height="49" viewBox="0 0 49 49" fill="none"><mask id="mask0_44_35" style="mask-type:alpha" maskUnits="userSpaceOnUse" x="0" y="0" width="49" height="49"><rect x="0.222778" y="0.75058" width="48" height="48" fill="#D9D9D9"/></mask><g mask="url(#mask0_44_35)"><circle cx="27.3312" cy="16.6447" r="4.92516" stroke="black" stroke-width="2"/><path d="M23.0035 23.0452L22.8873 23.5315L22.8873 23.5315L23.0035 23.0452ZM20.898 23.348L20.6784 22.8988L20.6784 22.8988L20.898 23.348ZM24.0518 23.4894L23.8107 23.9275L23.8172 23.931L24.0518 23.4894ZM24.0518 23.4894L24.2928 23.0513L24.2864 23.0478L24.0518 23.4894ZM24.2185 23.5788L23.9949 24.0261L23.9949 24.0261L24.2185 23.5788ZM27.3312 24.3178L27.3257 24.8179L27.3367 24.8178L27.3312 24.3178ZM30.4438 23.5788L30.2202 23.1316L30.2202 23.1316L30.4438 23.5788ZM30.6106 23.4894L30.3696 23.0513L30.3696 23.0513L30.6106 23.4894ZM31.6589 23.0452L31.7751 23.5315L31.7751 23.5315L31.6589 23.0452ZM33.7644 23.348L33.984 22.8988L33.984 22.8988L33.7644 23.348ZM33.8577 23.4072L34.1706 23.0172L34.1706 23.0172L33.8577 23.4072ZM37.737 31.6263L37.2396 31.6772L37.2396 31.6772L37.737 31.6263ZM37.0222 34.4133L37.4031 34.7372L37.4031 34.7372L37.0222 34.4133ZM35.3761 35.3445L35.3105 34.8488L35.3105 34.8488L35.3761 35.3445ZM27.3312 35.3303L27.4665 34.8489C27.378 34.824 27.2844 34.824 27.1959 34.8489L27.3312 35.3303ZM19.2863 35.3445L19.3519 34.8488L19.3519 34.8488L19.2863 35.3445ZM17.6402 34.4133L17.2593 34.7372L17.2593 34.7372L17.6402 34.4133ZM16.9254 31.6263L17.4228 31.6772L17.4228 31.6772L16.9254 31.6263ZM20.8047 23.4072L21.1176 23.7972L21.1176 23.7972L20.8047 23.4072ZM27.3312 34.3674L27.1959 34.8488C27.2844 34.8737 27.378 34.8737 27.4665 34.8488L27.3312 34.3674ZM35.2742 34.3488V34.8488C35.301 34.8488 35.3277 34.8467 35.3542 34.8424L35.2742 34.3488ZM36.2603 33.7656L35.8794 33.4417L35.8794 33.4417L36.2603 33.7656ZM36.7422 31.7281L37.2396 31.6772L37.2396 31.6772L36.7422 31.7281ZM33.2761 24.2228L33.5911 23.8345C33.5598 23.8091 33.5255 23.7876 33.489 23.7704L33.2761 24.2228ZM31.8913 24.0178L31.7751 23.5315L31.7751 23.5315L31.8913 24.0178ZM31.1694 24.3258L31.4092 24.7646L31.4092 24.7646L31.1694 24.3258ZM30.8911 24.4733L31.1147 24.9205L31.1147 24.9205L30.8911 24.4733ZM27.3917 25.3171L27.3833 24.8171C27.3755 24.8173 27.3677 24.8176 27.3599 24.8181L27.3917 25.3171ZM27.356 25.3181L27.3594 24.8181L27.3594 24.8181L27.356 25.3181ZM27.3312 25.3179L27.3361 24.8178L27.3263 24.8179L27.3312 25.3179ZM27.3064 25.3181L27.303 24.8181L27.303 24.8181L27.3064 25.3181ZM27.2707 25.3171L27.3025 24.8181C27.2947 24.8176 27.2869 24.8173 27.2791 24.8171L27.2707 25.3171ZM23.7713 24.4733L23.9949 24.0261L23.9949 24.0261L23.7713 24.4733ZM23.493 24.3258L23.7327 23.887L23.7327 23.887L23.493 24.3258ZM22.7711 24.0178L22.6549 24.5041L22.6549 24.5041L22.7711 24.0178ZM21.3863 24.2228L21.1734 23.7704C21.1369 23.7876 21.1026 23.8091 21.0713 23.8345L21.3863 24.2228ZM17.9202 31.7281L17.4228 31.6772L17.4228 31.6772L17.9202 31.7281ZM18.4021 33.7656L18.783 33.4417L18.783 33.4417L18.4021 33.7656ZM19.3882 34.3488L19.3082 34.8424C19.3347 34.8467 19.3614 34.8488 19.3882 34.8488V34.3488ZM23.1197 22.5589C22.4189 22.3914 21.6099 22.4434 20.6784 22.8988L21.1176 23.7972C21.8533 23.4375 22.4255 23.4212 22.8873 23.5315L23.1197 22.5589ZM24.2928 23.0513C24.0483 22.9168 23.6196 22.6783 23.1197 22.5589L22.8873 23.5315C23.2391 23.6156 23.5585 23.7887 23.8107 23.9275L24.2928 23.0513ZM24.2864 23.0478L24.2863 23.0478L23.8172 23.931L23.8172 23.931L24.2864 23.0478ZM24.4422 23.1316C24.4067 23.1139 24.3604 23.0885 24.2928 23.0513L23.8107 23.9275C23.8722 23.9613 23.9379 23.9976 23.9949 24.0261L24.4422 23.1316ZM27.3367 23.8178C25.7841 23.8007 24.7287 23.2749 24.4422 23.1316L23.9949 24.0261C24.3336 24.1954 25.5499 24.7981 27.3257 24.8178L27.3367 23.8178ZM27.3367 24.8178C29.1125 24.7981 30.3288 24.1954 30.6675 24.0261L30.2202 23.1316C29.9337 23.2749 28.8783 23.8007 27.3257 23.8178L27.3367 24.8178ZM30.6675 24.0261C30.7245 23.9976 30.7902 23.9613 30.8517 23.9275L30.3696 23.0513C30.302 23.0885 30.2557 23.1139 30.2202 23.1316L30.6675 24.0261ZM30.8516 23.9275C31.1039 23.7887 31.4233 23.6156 31.7751 23.5315L31.5427 22.5589C31.0428 22.6783 30.6141 22.9168 30.3696 23.0513L30.8516 23.9275ZM31.7751 23.5315C32.2369 23.4212 32.8091 23.4375 33.5448 23.7972L33.984 22.8988C33.0525 22.4434 32.2435 22.3914 31.5427 22.5589L31.7751 23.5315ZM33.5448 23.7972L33.5448 23.7972L34.1706 23.0172C34.113 22.9709 34.0504 22.9312 33.984 22.8988L33.5448 23.7972ZM33.5448 23.7972C36.3567 26.0533 36.9453 28.7998 37.2396 31.6772L38.2344 31.5755C37.9321 28.6197 37.3031 25.5305 34.1706 23.0172L33.5448 23.7972ZM37.2396 31.6772C37.3573 32.8283 37.0602 33.5967 36.6412 34.0895L37.4031 34.7372C38.0233 34.0077 38.3757 32.9573 38.2344 31.5755L37.2396 31.6772ZM36.6412 34.0895C36.2223 34.5823 35.6812 34.7998 35.3105 34.8488L35.4417 35.8402C36.0316 35.7621 36.8073 35.4379 37.4031 34.7372L36.6412 34.0895ZM35.3105 34.8488L35.3105 34.8488V35.8488C35.3543 35.8488 35.3982 35.846 35.4417 35.8402L35.3105 34.8488ZM35.3105 34.8488H27.4668V35.8488H35.3105V34.8488ZM27.4668 34.8488L27.4665 34.8489L27.1959 35.8116C27.2826 35.836 27.3736 35.8488 27.4668 35.8488V34.8488ZM27.1956 35.8488C27.2888 35.8488 27.3798 35.836 27.4665 35.8116L27.1959 34.8489L27.1956 34.8488V35.8488ZM19.3519 35.8488H27.1956V34.8488H19.3519V35.8488ZM19.2207 35.8402C19.2642 35.846 19.308 35.8488 19.3519 35.8488V34.8488L19.3519 34.8488L19.2207 35.8402ZM17.2593 34.7372C17.855 35.4379 18.6307 35.7621 19.2207 35.8402L19.3519 34.8488C18.9812 34.7998 18.4401 34.5823 18.0211 34.0895L17.2593 34.7372ZM16.428 31.5755C16.2867 32.9573 16.6391 34.0077 17.2593 34.7372L18.0211 34.0895C17.6022 33.5967 17.3051 32.8283 17.4228 31.6772L16.428 31.5755ZM20.4918 23.0172C17.3593 25.5305 16.7303 28.6197 16.428 31.5755L17.4228 31.6772C17.7171 28.7998 18.3056 26.0533 21.1176 23.7972L20.4918 23.0172ZM20.6784 22.8988C20.612 22.9312 20.5494 22.9709 20.4918 23.0172L21.1176 23.7972L21.1176 23.7972L20.6784 22.8988ZM27.4665 34.8488L27.4668 34.8488V33.8488C27.3736 33.8488 27.2826 33.8617 27.1959 33.8861L27.4665 34.8488ZM27.4668 34.8488H35.2742V33.8488H27.4668V34.8488ZM35.3542 34.8424C35.7199 34.7831 36.2369 34.565 36.6412 34.0895L35.8794 33.4417C35.6464 33.7157 35.3533 33.8295 35.1942 33.8553L35.3542 34.8424ZM36.6412 34.0895C37.0602 33.5967 37.3573 32.8284 37.2396 31.6772L36.2448 31.779C36.3388 32.6986 36.0976 33.1851 35.8794 33.4417L36.6412 34.0895ZM37.2396 31.6772C36.947 28.8163 36.3635 26.0838 33.5911 23.8345L32.961 24.6111C35.4164 26.603 35.9601 28.9952 36.2448 31.779L37.2396 31.6772ZM33.489 23.7704C32.7791 23.4362 32.224 23.4243 31.7751 23.5315L32.0075 24.5041C32.2256 24.452 32.549 24.4332 33.0631 24.6752L33.489 23.7704ZM31.7751 23.5315C31.4209 23.6161 31.159 23.7617 30.9297 23.887L31.4092 24.7646C31.6447 24.6359 31.7992 24.5539 32.0075 24.5041L31.7751 23.5315ZM30.9297 23.887C30.8412 23.9353 30.7578 23.9809 30.6675 24.0261L31.1147 24.9205C31.2237 24.866 31.3224 24.812 31.4092 24.7646L30.9297 23.887ZM30.6675 24.0261C30.3316 24.194 29.1337 24.7876 27.3833 24.8171L27.4002 25.817C29.3706 25.7838 30.727 25.1143 31.1147 24.9205L30.6675 24.0261ZM27.3525 25.8181C27.3763 25.8182 27.4 25.8176 27.4235 25.8161L27.3599 24.8181L27.3594 24.8181L27.3525 25.8181ZM27.3263 25.8178C27.335 25.8179 27.3438 25.818 27.3525 25.8181L27.3594 24.8181C27.3516 24.818 27.3438 24.818 27.3361 24.8179L27.3263 25.8178ZM27.3263 24.8179C27.3185 24.818 27.3108 24.818 27.303 24.8181L27.3098 25.8181C27.3186 25.818 27.3273 25.8179 27.3361 25.8178L27.3263 24.8179ZM27.303 24.8181L27.3025 24.8181L27.2389 25.8161C27.2624 25.8176 27.2861 25.8182 27.3098 25.8181L27.303 24.8181ZM23.5477 24.9205C23.9353 25.1143 25.2918 25.7838 27.2622 25.817L27.2791 24.8171C25.5287 24.7876 24.3308 24.194 23.9949 24.0261L23.5477 24.9205ZM23.2532 24.7646C23.34 24.812 23.4387 24.866 23.5477 24.9205L23.9949 24.0261C23.9046 23.9809 23.8212 23.9353 23.7327 23.887L23.2532 24.7646ZM22.6549 24.5041C22.8632 24.5539 23.0177 24.6359 23.2532 24.7646L23.7327 23.887C23.5034 23.7617 23.2415 23.6161 22.8873 23.5315L22.6549 24.5041ZM21.5993 24.6752C22.1133 24.4332 22.4368 24.452 22.6549 24.5041L22.8873 23.5315C22.4384 23.4243 21.8833 23.4362 21.1734 23.7704L21.5993 24.6752ZM18.4176 31.779C18.7023 28.9952 19.246 26.603 21.7013 24.6111L21.0713 23.8345C18.2989 26.0838 17.7154 28.8163 17.4228 31.6772L18.4176 31.779ZM18.783 33.4417C18.5648 33.1851 18.3235 32.6986 18.4176 31.779L17.4228 31.6772C17.305 32.8284 17.6022 33.5967 18.0211 34.0895L18.783 33.4417ZM19.4682 33.8553C19.3091 33.8295 19.016 33.7157 18.783 33.4417L18.0211 34.0895C18.4254 34.565 18.9425 34.7831 19.3082 34.8424L19.4682 33.8553ZM27.1956 33.8488H19.3882V34.8488H27.1956V33.8488ZM27.4665 33.8861C27.3798 33.8617 27.2888 33.8488 27.1956 33.8488V34.8488L27.1959 34.8488L27.4665 33.8861Z" fill="black"/><path fill-rule="evenodd" clip-rule="evenodd" d="M16.2333 14.6119C16.2225 14.0597 15.7662 13.6208 15.214 13.6316C14.6618 13.6424 14.2229 14.0987 14.2337 14.6509L14.2827 17.1564H11.7767C11.2244 17.1564 10.7767 17.6041 10.7767 18.1564C10.7767 18.7087 11.2244 19.1564 11.7767 19.1564H14.3217L14.3714 21.7009C14.3822 22.2531 14.8386 22.692 15.3908 22.6812C15.9429 22.6704 16.3818 22.214 16.371 21.6619L16.3221 19.1564H18.828C19.3803 19.1564 19.828 18.7087 19.828 18.1564C19.828 17.6041 19.3803 17.1564 18.828 17.1564H16.283L16.2333 14.6119Z" fill="black"/></g></svg>