<?xml version="1.0"?><svg xmlns="http://www.w3.org/2000/svg" width="49" height="49" viewBox="0 0 49 49" fill="none"><mask id="mask0_44_53" style="mask-type:alpha" maskUnits="userSpaceOnUse" x="0" y="0" width="49" height="49"><rect x="0.942692" y="0.46936" width="48" height="48" fill="#D9D9D9"/></mask><g mask="url(#mask0_44_53)"><circle cx="24.9427" cy="23.5045" r="2.77201" stroke="black" stroke-width="2"/><circle cx="13.9939" cy="16.0307" r="2.77201" stroke="black" stroke-width="2"/><circle cx="35.8915" cy="16.5224" r="2.77201" stroke="black" stroke-width="2"/><path d="M22.5578 28.324L22.674 27.8377L22.674 27.8377L22.5578 28.324ZM21.2259 28.5107L21.0063 28.0615L21.0063 28.0615L21.2259 28.5107ZM23.2176 28.6031L23.4597 28.1656L23.4597 28.1656L23.2176 28.6031ZM23.2886 28.6415L23.065 29.0887L23.065 29.0887L23.2886 28.6415ZM24.9427 29.0343L24.9369 29.5344L24.9485 29.5343L24.9427 29.0343ZM26.5968 28.6415L26.8204 29.0887L26.8204 29.0887L26.5968 28.6415ZM26.6678 28.6031L26.4256 28.1656L26.4256 28.1656L26.6678 28.6031ZM27.3276 28.324L27.2114 27.8377L27.2114 27.8377L27.3276 28.324ZM28.6595 28.5107L28.8791 28.0615L28.8791 28.0615L28.6595 28.5107ZM28.7528 28.5699L29.0657 28.1799L29.0657 28.1799L28.7528 28.5699ZM31.0168 33.3441L30.5194 33.3949L30.5194 33.3949L31.0168 33.3441ZM30.5636 35.0765L30.1826 34.7526L30.1826 34.7526L30.5636 35.0765ZM29.4992 35.6757L29.5648 36.1714L29.5648 36.1714L29.4992 35.6757ZM24.9427 35.6742L25.0184 35.18C24.9682 35.1723 24.9172 35.1723 24.867 35.18L24.9427 35.6742ZM20.3862 35.6757L20.3205 36.1714L20.3206 36.1714L20.3862 35.6757ZM19.3218 35.0765L18.9409 35.4003L18.9409 35.4003L19.3218 35.0765ZM18.8686 33.3441L19.366 33.3949L19.366 33.3949L18.8686 33.3441ZM21.1326 28.5699L20.8197 28.1799L20.8197 28.1799L21.1326 28.5699ZM24.9427 34.6858L24.867 35.18C24.9172 35.1877 24.9682 35.1877 25.0184 35.18L24.9427 34.6858ZM29.3938 34.68V35.18C29.4268 35.18 29.4596 35.1768 29.4919 35.1703L29.3938 34.68ZM29.8017 34.4287L30.1826 34.7526L30.1826 34.7526L29.8017 34.4287ZM30.022 33.4458L30.5194 33.3949L30.5194 33.3949L30.022 33.4458ZM28.1719 29.3862L28.4888 28.9995C28.455 28.9719 28.4179 28.9488 28.3782 28.9308L28.1719 29.3862ZM27.56 29.2966L27.6762 29.783L27.6762 29.783L27.56 29.2966ZM27.2274 29.439L26.9874 29.0003L26.9874 29.0003L27.2274 29.439ZM27.044 29.5359L26.8204 29.0887L26.8204 29.0887L27.044 29.5359ZM24.9851 30.0338L24.9762 29.5338C24.9705 29.5339 24.9647 29.5341 24.959 29.5344L24.9851 30.0338ZM24.9551 30.0344L24.9586 29.5345L24.9586 29.5345L24.9551 30.0344ZM24.9427 30.0343L24.9474 29.5343L24.938 29.5344L24.9427 30.0343ZM24.9302 30.0344L24.9268 29.5345L24.9268 29.5345L24.9302 30.0344ZM24.9003 30.0338L24.9264 29.5344C24.9206 29.5341 24.9149 29.5339 24.9092 29.5338L24.9003 30.0338ZM22.658 29.439L22.4181 29.8776L22.4181 29.8776L22.658 29.439ZM22.3254 29.2966L22.4416 28.8103L22.4416 28.8103L22.3254 29.2966ZM21.7135 29.3862L21.5072 28.9308C21.4675 28.9488 21.4303 28.9719 21.3966 28.9995L21.7135 29.3862ZM19.8634 33.4458L20.3608 33.4967L20.3608 33.4967L19.8634 33.4458ZM20.0837 34.4287L20.4646 34.1049L20.4646 34.1049L20.0837 34.4287ZM20.4916 34.68L20.3935 35.1703C20.4258 35.1768 20.4586 35.18 20.4916 35.18V34.68ZM22.674 27.8377C22.175 27.7185 21.6162 27.7633 21.0063 28.0615L21.4455 28.9599C21.8596 28.7574 22.1817 28.7482 22.4416 28.8103L22.674 27.8377ZM23.4597 28.1656C23.3289 28.0932 23.0227 27.921 22.674 27.8377L22.4416 28.8103C22.6409 28.858 22.8372 28.964 22.9754 29.0405L23.4597 28.1656ZM23.5122 28.1942C23.5122 28.1943 23.5119 28.1941 23.5111 28.1937C23.5103 28.1933 23.5093 28.1928 23.5079 28.192C23.5051 28.1905 23.5014 28.1885 23.4966 28.1859C23.4867 28.1806 23.4751 28.1741 23.4597 28.1656L22.9754 29.0405C23.0008 29.0546 23.0359 29.0742 23.065 29.0887L23.5122 28.1942ZM24.9485 28.5343C24.1734 28.5253 23.6506 28.2634 23.5122 28.1942L23.065 29.0887C23.2553 29.1838 23.9388 29.5226 24.9369 29.5343L24.9485 28.5343ZM24.9485 29.5343C25.9465 29.5226 26.6301 29.1838 26.8204 29.0887L26.3732 28.1942C26.2348 28.2634 25.712 28.5253 24.9369 28.5343L24.9485 29.5343ZM26.8204 29.0887C26.8495 29.0742 26.8846 29.0546 26.91 29.0405L26.4256 28.1656C26.4103 28.1741 26.3987 28.1806 26.3888 28.1859C26.384 28.1885 26.3803 28.1905 26.3775 28.192C26.3761 28.1928 26.375 28.1933 26.3743 28.1937C26.3735 28.1941 26.3732 28.1943 26.3732 28.1942L26.8204 29.0887ZM26.91 29.0405C27.0482 28.964 27.2445 28.858 27.4438 28.8103L27.2114 27.8377C26.8627 27.921 26.5565 28.0932 26.4256 28.1656L26.91 29.0405ZM27.4438 28.8103C27.7037 28.7482 28.0257 28.7574 28.4399 28.9599L28.8791 28.0615C28.2692 27.7633 27.7104 27.7185 27.2114 27.8377L27.4438 28.8103ZM28.4399 28.9599L28.4399 28.9599L29.0657 28.1799C29.008 28.1336 28.9455 28.0939 28.8791 28.0615L28.4399 28.9599ZM28.4399 28.9599C30.0225 30.2296 30.3538 31.7754 30.5194 33.3949L31.5142 33.2932C31.3406 31.5954 30.9689 29.7069 29.0657 28.1799L28.4399 28.9599ZM30.5194 33.3949C30.5857 34.043 30.4183 34.4754 30.1826 34.7526L30.9445 35.4003C31.3816 34.8863 31.6041 34.1718 31.5142 33.2932L30.5194 33.3949ZM30.1826 34.7526C29.9469 35.0299 29.6424 35.1524 29.4336 35.18L29.5648 36.1714C29.9927 36.1147 30.5319 35.8856 30.9445 35.4003L30.1826 34.7526ZM29.4336 35.18L29.4336 35.18V36.18C29.4775 36.18 29.5213 36.1771 29.5648 36.1714L29.4336 35.18ZM29.4336 35.18H25.019V36.18H29.4336V35.18ZM25.019 35.18L25.0184 35.18L24.867 36.1685C24.9168 36.1761 24.9676 36.18 25.019 36.18V35.18ZM24.8664 36.18C24.9178 36.18 24.9685 36.1761 25.0184 36.1685L24.867 35.18L24.8664 35.18V36.18ZM20.4518 36.18H24.8664V35.18H20.4518V36.18ZM20.3206 36.1714C20.3641 36.1771 20.4079 36.18 20.4518 36.18V35.18L20.4517 35.18L20.3206 36.1714ZM18.9409 35.4003C19.3535 35.8856 19.8926 36.1147 20.3205 36.1714L20.4518 35.18C20.243 35.1524 19.9385 35.0299 19.7028 34.7526L18.9409 35.4003ZM18.3712 33.2932C18.2813 34.1718 18.5038 34.8863 18.9409 35.4003L19.7028 34.7526C19.4671 34.4754 19.2997 34.043 19.366 33.3949L18.3712 33.2932ZM20.8197 28.1799C18.9165 29.7069 18.5448 31.5954 18.3712 33.2932L19.366 33.3949C19.5316 31.7754 19.8629 30.2296 21.4455 28.9599L20.8197 28.1799ZM21.0063 28.0615C20.9399 28.0939 20.8773 28.1336 20.8197 28.1799L21.4455 28.9599L21.4455 28.9599L21.0063 28.0615ZM25.0184 35.18L25.019 35.18V34.18C24.9676 34.18 24.9168 34.1839 24.867 34.1916L25.0184 35.18ZM25.019 35.18H29.3938V34.18H25.019V35.18ZM29.4919 35.1703C29.6895 35.1307 29.9643 35.0094 30.1826 34.7526L29.4208 34.1049C29.3958 34.1342 29.3679 34.1553 29.3417 34.17C29.3138 34.1855 29.2948 34.1899 29.2957 34.1897L29.4919 35.1703ZM30.1826 34.7526C30.4182 34.4755 30.5857 34.0432 30.5194 33.3949L29.5246 33.4967C29.5672 33.9129 29.4559 34.0636 29.4208 34.1049L30.1826 34.7526ZM30.5194 33.3949C30.3556 31.7935 30.0299 30.2622 28.4888 28.9995L27.855 29.773C29.082 30.7783 29.3686 31.9712 29.5246 33.4967L30.5194 33.3949ZM28.3782 28.9308C27.9912 28.7555 27.6879 28.752 27.4438 28.8103L27.6762 29.783C27.6974 29.7779 27.7216 29.7744 27.7578 29.778C27.7964 29.7818 27.8633 29.7954 27.9656 29.8417L28.3782 28.9308ZM27.4438 28.8103C27.2426 28.8584 27.1043 28.9364 26.9874 29.0003L27.4673 29.8776C27.5881 29.8116 27.6201 29.7964 27.6762 29.783L27.4438 28.8103ZM26.9874 29.0003C26.935 29.029 26.8834 29.0572 26.8204 29.0887L27.2676 29.9831C27.3488 29.9425 27.4149 29.9063 27.4673 29.8776L26.9874 29.0003ZM26.8204 29.0887C26.6317 29.183 25.9591 29.5163 24.9762 29.5338L24.994 30.5337C26.1964 30.5123 27.0271 30.1034 27.2676 29.9831L26.8204 29.0887ZM24.9517 30.5344C24.9716 30.5346 24.9914 30.5341 25.0111 30.5331L24.959 29.5344L24.9586 29.5345L24.9517 30.5344ZM24.938 30.5343C24.9426 30.5344 24.9471 30.5344 24.9517 30.5344L24.9586 29.5345C24.9548 29.5344 24.9511 29.5344 24.9474 29.5344L24.938 30.5343ZM24.938 29.5344C24.9343 29.5344 24.9306 29.5344 24.9268 29.5345L24.9337 30.5344C24.9382 30.5344 24.9428 30.5344 24.9474 30.5343L24.938 29.5344ZM24.9268 29.5345L24.9264 29.5344L24.8742 30.5331C24.894 30.5341 24.9138 30.5346 24.9337 30.5344L24.9268 29.5345ZM22.6177 29.9831C22.8583 30.1034 23.689 30.5123 24.8914 30.5337L24.9092 29.5338C23.9263 29.5163 23.2537 29.183 23.065 29.0887L22.6177 29.9831ZM22.4181 29.8776C22.4704 29.9063 22.5366 29.9425 22.6177 29.9831L23.065 29.0887C23.002 29.0572 22.9504 29.029 22.898 29.0003L22.4181 29.8776ZM22.2092 29.783C22.2653 29.7964 22.2973 29.8116 22.4181 29.8776L22.898 29.0003C22.7811 28.9364 22.6428 28.8584 22.4416 28.8103L22.2092 29.783ZM21.9198 29.8417C22.0221 29.7954 22.089 29.7818 22.1276 29.778C22.1638 29.7744 22.188 29.7779 22.2092 29.783L22.4416 28.8103C22.1975 28.752 21.8942 28.7555 21.5072 28.9308L21.9198 29.8417ZM20.3608 33.4967C20.5168 31.9712 20.8034 30.7783 22.0304 29.773L21.3966 28.9995C19.8554 30.2622 19.5298 31.7935 19.366 33.3949L20.3608 33.4967ZM20.4646 34.1049C20.4295 34.0636 20.3182 33.9129 20.3608 33.4967L19.366 33.3949C19.2997 34.0432 19.4672 34.4755 19.7028 34.7526L20.4646 34.1049ZM20.5897 34.1897C20.5906 34.1899 20.5716 34.1855 20.5437 34.17C20.5175 34.1553 20.4896 34.1342 20.4646 34.1049L19.7028 34.7526C19.921 35.0094 20.1958 35.1307 20.3935 35.1703L20.5897 34.1897ZM24.8664 34.18H20.4916V35.18H24.8664V34.18ZM25.0184 34.1916C24.9685 34.1839 24.9178 34.18 24.8664 34.18V35.18L24.867 35.18L25.0184 34.1916Z" fill="black"/><path d="M11.609 20.8502L11.7252 20.3639L11.7252 20.3639L11.609 20.8502ZM10.2771 21.0369L10.0575 20.5877L10.0575 20.5877L10.2771 21.0369ZM12.2688 21.1293L12.511 20.6919L12.5109 20.6919L12.2688 21.1293ZM12.3398 21.1677L12.5634 20.7205L12.5634 20.7205L12.3398 21.1677ZM13.9939 21.5605L13.9881 22.0606L13.9997 22.0605L13.9939 21.5605ZM15.648 21.1677L15.4244 20.7205L15.4244 20.7205L15.648 21.1677ZM15.719 21.1293L15.4769 20.6919L15.4769 20.6919L15.719 21.1293ZM16.3788 20.8502L16.2626 20.3639L16.2626 20.3639L16.3788 20.8502ZM17.7107 21.0369L17.4911 21.4861L17.4911 21.4861L17.7107 21.0369ZM17.804 21.0961L17.4911 21.4861L17.4911 21.4861L17.804 21.0961ZM20.068 25.8703L19.5706 25.9212L19.5706 25.9212L20.068 25.8703ZM19.6148 27.6027L19.9957 27.9266L19.9957 27.9266L19.6148 27.6027ZM18.5504 28.2019L18.4848 27.7062L18.4848 27.7062L18.5504 28.2019ZM13.9939 28.2005L14.0696 27.7062C14.0194 27.6985 13.9684 27.6985 13.9182 27.7062L13.9939 28.2005ZM9.43736 28.2019L9.50297 27.7062L9.50297 27.7062L9.43736 28.2019ZM8.37304 27.6027L7.99211 27.9266L7.99211 27.9266L8.37304 27.6027ZM7.91979 25.8703L8.4172 25.9212L8.4172 25.9212L7.91979 25.8703ZM10.1838 21.0961L9.87092 20.7061L9.87092 20.7061L10.1838 21.0961ZM13.9939 27.212L13.9182 27.7063C13.9684 27.714 14.0194 27.714 14.0696 27.7063L13.9939 27.212ZM18.445 27.2062V27.7062C18.478 27.7062 18.5108 27.703 18.5431 27.6965L18.445 27.2062ZM18.8529 26.955L19.2338 27.2788L19.2338 27.2788L18.8529 26.955ZM19.0732 25.972L19.5706 25.9212L19.5706 25.9212L19.0732 25.972ZM17.2231 21.9125L17.54 21.5257C17.5063 21.4981 17.4691 21.475 17.4294 21.457L17.2231 21.9125ZM16.6112 21.8229L16.495 21.3366L16.495 21.3366L16.6112 21.8229ZM16.2786 21.9652L16.0386 21.5266C16.0339 21.5291 16.0293 21.5317 16.0247 21.5344L16.2786 21.9652ZM16.2786 21.9652L16.5185 22.4039C16.5232 22.4013 16.5278 22.3987 16.5324 22.396L16.2786 21.9652ZM14.0363 22.56L14.0274 22.0601C14.0217 22.0602 14.016 22.0604 14.0102 22.0607L14.0363 22.56ZM14.0064 22.5607L14.0098 22.0607L14.0098 22.0607L14.0064 22.5607ZM13.9939 22.5606L13.9986 22.0605L13.9892 22.0606L13.9939 22.5606ZM13.9815 22.5607L13.978 22.0607L13.978 22.0607L13.9815 22.5607ZM13.9515 22.56L13.9776 22.0607C13.9719 22.0604 13.9661 22.0602 13.9604 22.0601L13.9515 22.56ZM11.8926 22.0621L11.669 22.5093L11.669 22.5093L11.8926 22.0621ZM11.7092 21.9652L11.4319 22.3812C11.444 22.3893 11.4565 22.3969 11.4693 22.4039L11.7092 21.9652ZM11.7092 21.9652L11.9866 21.5492C11.9745 21.5411 11.962 21.5336 11.9492 21.5266L11.7092 21.9652ZM11.3766 21.8229L11.2604 22.3092L11.2604 22.3092L11.3766 21.8229ZM10.7647 21.9125L10.5584 21.457C10.5187 21.475 10.4816 21.4981 10.4478 21.5257L10.7647 21.9125ZM8.9146 25.972L9.41201 26.0229L9.41201 26.0229L8.9146 25.972ZM9.1349 26.955L8.75397 27.2788L8.75397 27.2788L9.1349 26.955ZM9.54279 27.2062L9.44467 27.6965C9.47698 27.703 9.50985 27.7062 9.54279 27.7062V27.2062ZM11.7252 20.3639C11.2262 20.2447 10.6674 20.2895 10.0575 20.5877L10.4967 21.4861C10.9109 21.2836 11.2329 21.2745 11.4928 21.3366L11.7252 20.3639ZM12.5109 20.6919C12.3801 20.6194 12.0739 20.4473 11.7252 20.3639L11.4928 21.3366C11.6921 21.3842 11.8884 21.4902 12.0266 21.5667L12.5109 20.6919ZM12.5634 20.7205C12.5634 20.7205 12.5631 20.7203 12.5623 20.7199C12.5616 20.7195 12.5605 20.719 12.5591 20.7183C12.5563 20.7168 12.5526 20.7148 12.5478 20.7122C12.5379 20.7068 12.5263 20.7004 12.511 20.6919L12.0266 21.5667C12.052 21.5808 12.0871 21.6004 12.1162 21.6149L12.5634 20.7205ZM13.9997 21.0605C13.2246 21.0515 12.7018 20.7897 12.5634 20.7205L12.1162 21.6149C12.3065 21.7101 12.9901 22.0488 13.9881 22.0605L13.9997 21.0605ZM13.9997 22.0605C14.9978 22.0488 15.6813 21.7101 15.8716 21.6149L15.4244 20.7205C15.286 20.7897 14.7632 21.0515 13.9881 21.0605L13.9997 22.0605ZM15.8716 21.6149C15.9007 21.6004 15.9358 21.5808 15.9612 21.5667L15.4769 20.6919C15.4615 20.7004 15.4499 20.7068 15.44 20.7122C15.4352 20.7148 15.4315 20.7168 15.4287 20.7183C15.4273 20.719 15.4263 20.7195 15.4255 20.7199C15.4247 20.7203 15.4244 20.7205 15.4244 20.7205L15.8716 21.6149ZM15.9612 21.5667C16.0994 21.4902 16.2957 21.3842 16.495 21.3366L16.2626 20.3639C15.9139 20.4473 15.6077 20.6194 15.4769 20.6919L15.9612 21.5667ZM16.495 21.3366C16.7549 21.2745 17.0769 21.2836 17.4911 21.4861L17.9303 20.5877C17.3204 20.2895 16.7616 20.2447 16.2626 20.3639L16.495 21.3366ZM17.4911 21.4861L17.4911 21.4861L18.1169 20.7061C18.0593 20.6599 17.9967 20.6202 17.9303 20.5877L17.4911 21.4861ZM17.4911 21.4861C19.0737 22.7558 19.405 24.3016 19.5706 25.9212L20.5654 25.8194C20.3918 24.1216 20.0201 22.2331 18.1169 20.7061L17.4911 21.4861ZM19.5706 25.9212C19.6369 26.5692 19.4695 27.0016 19.2338 27.2788L19.9957 27.9266C20.4328 27.4125 20.6553 26.698 20.5654 25.8194L19.5706 25.9212ZM19.2338 27.2788C18.9981 27.5561 18.6936 27.6786 18.4848 27.7062L18.616 28.6976C19.044 28.641 19.5831 28.4119 19.9957 27.9266L19.2338 27.2788ZM18.4848 27.7062L18.4848 27.7062V28.7062C18.5287 28.7062 18.5725 28.7034 18.6161 28.6976L18.4848 27.7062ZM18.4848 27.7062H14.0702V28.7062H18.4848V27.7062ZM14.0702 27.7062L14.0696 27.7062L13.9182 28.6947C13.9681 28.7023 14.0188 28.7062 14.0702 28.7062V27.7062ZM13.9176 28.7062C13.969 28.7062 14.0198 28.7023 14.0696 28.6947L13.9182 27.7062L13.9176 27.7062V28.7062ZM9.50297 28.7062H13.9176V27.7062H9.50297V28.7062ZM9.37176 28.6976C9.41526 28.7034 9.45909 28.7062 9.50297 28.7062V27.7062L9.50297 27.7062L9.37176 28.6976ZM7.99211 27.9266C8.40471 28.4119 8.94386 28.641 9.37176 28.6976L9.50297 27.7062C9.2942 27.6786 8.98972 27.5561 8.75397 27.2788L7.99211 27.9266ZM7.42239 25.8194C7.33254 26.698 7.55504 27.4125 7.99211 27.9266L8.75397 27.2788C8.51827 27.0016 8.35092 26.5692 8.4172 25.9212L7.42239 25.8194ZM9.87092 20.7061C7.96771 22.2331 7.59603 24.1216 7.42239 25.8194L8.4172 25.9212C8.58284 24.3016 8.91413 22.7558 10.4967 21.4861L9.87092 20.7061ZM10.0575 20.5877C9.99113 20.6202 9.92855 20.6599 9.87092 20.7061L10.4967 21.4861L10.4967 21.4861L10.0575 20.5877ZM14.0696 27.7063L14.0702 27.7062V26.7062C14.0188 26.7062 13.9681 26.7102 13.9182 26.7178L14.0696 27.7063ZM14.0702 27.7062H18.445V26.7062H14.0702V27.7062ZM18.5431 27.6965C18.7407 27.657 19.0156 27.5356 19.2338 27.2788L18.472 26.6311C18.447 26.6604 18.4191 26.6816 18.3929 26.6962C18.365 26.7118 18.346 26.7162 18.3469 26.716L18.5431 27.6965ZM19.2338 27.2788C19.4694 27.0018 19.6369 26.5695 19.5706 25.9212L18.5758 26.0229C18.6184 26.4391 18.5071 26.5898 18.472 26.6311L19.2338 27.2788ZM19.5706 25.9212C19.4068 24.3198 19.0811 22.7884 17.54 21.5257L16.9062 22.2992C18.1332 23.3045 18.4198 24.4974 18.5758 26.0229L19.5706 25.9212ZM17.4294 21.457C17.0424 21.2817 16.7391 21.2782 16.495 21.3366L16.7274 22.3092C16.7486 22.3041 16.7728 22.3006 16.809 22.3042C16.8476 22.3081 16.9145 22.3216 17.0168 22.3679L17.4294 21.457ZM16.495 21.3366C16.2938 21.3846 16.1555 21.4626 16.0386 21.5266L16.5185 22.4039C16.6393 22.3378 16.6713 22.3226 16.7274 22.3092L16.495 21.3366ZM16.0247 21.5344L16.0247 21.5344L16.5324 22.396L16.5324 22.396L16.0247 21.5344ZM16.0386 21.5266C15.9862 21.5552 15.9346 21.5834 15.8716 21.6149L16.3188 22.5093C16.4 22.4687 16.4662 22.4325 16.5185 22.4039L16.0386 21.5266ZM15.8716 21.6149C15.6829 21.7093 15.0103 22.0426 14.0274 22.0601L14.0452 23.0599C15.2476 23.0385 16.0783 22.6296 16.3188 22.5093L15.8716 21.6149ZM14.0029 23.0607C14.0228 23.0608 14.0426 23.0603 14.0624 23.0593L14.0102 22.0607L14.0098 22.0607L14.0029 23.0607ZM13.9892 23.0605C13.9938 23.0606 13.9984 23.0606 14.0029 23.0607L14.0098 22.0607C14.006 22.0607 14.0023 22.0606 13.9986 22.0606L13.9892 23.0605ZM13.9892 22.0606C13.9855 22.0606 13.9818 22.0607 13.978 22.0607L13.9849 23.0607C13.9895 23.0606 13.994 23.0606 13.9986 23.0605L13.9892 22.0606ZM13.978 22.0607L13.9776 22.0607L13.9255 23.0593C13.9452 23.0603 13.965 23.0608 13.9849 23.0607L13.978 22.0607ZM11.669 22.5093C11.9095 22.6296 12.7402 23.0385 13.9426 23.0599L13.9604 22.0601C12.9775 22.0426 12.3049 21.7093 12.1162 21.6149L11.669 22.5093ZM11.4693 22.4039C11.5217 22.4325 11.5878 22.4687 11.669 22.5093L12.1162 21.6149C12.0532 21.5834 12.0016 21.5552 11.9492 21.5266L11.4693 22.4039ZM11.4319 22.3812L11.4319 22.3812L11.9866 21.5492L11.9866 21.5492L11.4319 22.3812ZM11.2604 22.3092C11.3165 22.3226 11.3485 22.3378 11.4693 22.4039L11.9492 21.5266C11.8323 21.4626 11.694 21.3846 11.4928 21.3366L11.2604 22.3092ZM10.971 22.3679C11.0733 22.3216 11.1402 22.3081 11.1788 22.3042C11.215 22.3006 11.2392 22.3041 11.2604 22.3092L11.4928 21.3366C11.2487 21.2782 10.9454 21.2817 10.5584 21.457L10.971 22.3679ZM9.41201 26.0229C9.56803 24.4974 9.85464 23.3045 11.0816 22.2992L10.4478 21.5257C8.90666 22.7884 8.58098 24.3198 8.4172 25.9212L9.41201 26.0229ZM9.51584 26.6311C9.48071 26.5898 9.36944 26.4391 9.41201 26.0229L8.4172 25.9212C8.3509 26.5695 8.51841 27.0018 8.75397 27.2788L9.51584 26.6311ZM9.64092 26.716C9.64181 26.7162 9.62278 26.7118 9.59489 26.6962C9.56874 26.6816 9.54078 26.6604 9.51584 26.6311L8.75397 27.2788C8.97225 27.5356 9.24706 27.657 9.44467 27.6965L9.64092 26.716ZM13.9176 26.7062H9.54279V27.7062H13.9176V26.7062ZM14.0696 26.7178C14.0198 26.7102 13.969 26.7062 13.9176 26.7062V27.7062L13.9182 27.7063L14.0696 26.7178Z" fill="black"/><path d="M33.5065 21.3419L33.6227 20.8556L33.6227 20.8556L33.5065 21.3419ZM32.1747 21.5286L31.9551 21.0794L31.9551 21.0794L32.1747 21.5286ZM34.1663 21.621L34.4085 21.1836L34.4085 21.1836L34.1663 21.621ZM34.2374 21.6594L34.461 21.2122L34.461 21.2122L34.2374 21.6594ZM35.8915 22.0522L35.8856 22.5523L35.8973 22.5522L35.8915 22.0522ZM37.5456 21.6594L37.7692 22.1066L37.7692 22.1066L37.5456 21.6594ZM37.6166 21.621L37.3744 21.1836L37.3744 21.1836L37.6166 21.621ZM38.2764 21.3419L38.1602 20.8556L38.1602 20.8556L38.2764 21.3419ZM39.6083 21.5286L39.8279 21.0794L39.8279 21.0794L39.6083 21.5286ZM39.7016 21.5878L40.0145 21.1978L40.0145 21.1978L39.7016 21.5878ZM41.9656 26.362L41.4682 26.4129L41.4682 26.4129L41.9656 26.362ZM41.5123 28.0944L41.1314 27.7705L41.1314 27.7705L41.5123 28.0944ZM40.448 28.6936L40.3824 28.1979L40.3824 28.1979L40.448 28.6936ZM35.8915 28.6921L35.9672 28.1979C35.917 28.1902 35.866 28.1902 35.8158 28.1979L35.8915 28.6921ZM31.3349 28.6936L31.4005 28.1979L31.4005 28.1979L31.3349 28.6936ZM30.2706 28.0944L29.8897 28.4183L29.8897 28.4183L30.2706 28.0944ZM29.8174 26.362L30.3148 26.4129L30.3148 26.4129L29.8174 26.362ZM32.0814 21.5878L31.7685 21.1978L31.7685 21.1978L32.0814 21.5878ZM35.8915 27.7037L35.8158 28.198C35.866 28.2056 35.917 28.2056 35.9672 28.198L35.8915 27.7037ZM40.3426 27.6979V28.1979C40.3755 28.1979 40.4084 28.1947 40.4407 28.1882L40.3426 27.6979ZM40.7505 27.4467L41.1314 27.7705L41.1314 27.7705L40.7505 27.4467ZM40.9708 26.4637L41.4682 26.4129L41.4682 26.4129L40.9708 26.4637ZM39.1207 22.4042L39.4375 22.0174C39.4038 21.9898 39.3667 21.9667 39.327 21.9487L39.1207 22.4042ZM38.5088 22.3146L38.625 22.8009L38.625 22.8009L38.5088 22.3146ZM38.1761 22.4569L37.9362 22.0183L37.9362 22.0183L38.1761 22.4569ZM37.9928 22.5538L37.7692 22.1066L37.7692 22.1066L37.9928 22.5538ZM35.9339 23.0517L35.925 22.5518C35.9192 22.5519 35.9135 22.5521 35.9078 22.5524L35.9339 23.0517ZM35.9039 23.0524L35.9005 23.5523L35.9005 23.5523L35.9039 23.0524ZM35.8915 23.0523L35.8962 22.5522L35.8868 22.5523L35.8915 23.0523ZM35.879 23.0524L35.8825 23.5523L35.8825 23.5523L35.879 23.0524ZM35.8491 23.0517L35.8751 22.5524C35.8694 22.5521 35.8637 22.5519 35.858 22.5518L35.8491 23.0517ZM33.7901 22.5538L34.0137 22.1066L34.0137 22.1066L33.7901 22.5538ZM33.6068 22.4569L33.3617 22.8927L33.3669 22.8956L33.6068 22.4569ZM33.6068 22.4569L33.852 22.0211L33.8468 22.0183L33.6068 22.4569ZM33.2742 22.3146L33.158 22.8009L33.158 22.8009L33.2742 22.3146ZM32.6623 22.4042L32.456 21.9487C32.4163 21.9667 32.3791 21.9898 32.3454 22.0174L32.6623 22.4042ZM30.8122 26.4637L31.3096 26.5146L31.3096 26.5146L30.8122 26.4637ZM31.0325 27.4467L30.6515 27.7705L30.6515 27.7705L31.0325 27.4467ZM31.4404 27.6979L31.3422 28.1882C31.3746 28.1947 31.4074 28.1979 31.4404 28.1979V27.6979ZM33.6227 20.8556C33.1238 20.7364 32.565 20.7812 31.9551 21.0794L32.3943 21.9778C32.8084 21.7753 33.1305 21.7662 33.3903 21.8282L33.6227 20.8556ZM34.4085 21.1836C34.2777 21.1111 33.9715 20.9389 33.6227 20.8556L33.3903 21.8282C33.5897 21.8759 33.786 21.9819 33.9242 22.0584L34.4085 21.1836ZM34.461 21.2122C34.461 21.2122 34.4606 21.212 34.4599 21.2116C34.4591 21.2112 34.4581 21.2107 34.4567 21.2099C34.4539 21.2084 34.4502 21.2065 34.4454 21.2039C34.4355 21.1985 34.4238 21.192 34.4085 21.1836L33.9242 22.0584C33.9496 22.0725 33.9847 22.0921 34.0137 22.1066L34.461 21.2122ZM35.8973 21.5522C35.1222 21.5432 34.5993 21.2814 34.461 21.2122L34.0137 22.1066C34.2041 22.2018 34.8876 22.5405 35.8856 22.5522L35.8973 21.5522ZM35.8973 22.5522C36.8953 22.5405 37.5789 22.2018 37.7692 22.1066L37.322 21.2122C37.1836 21.2814 36.6608 21.5432 35.8856 21.5522L35.8973 22.5522ZM37.7692 22.1066C37.7982 22.0921 37.8334 22.0725 37.8588 22.0584L37.3744 21.1836C37.3591 21.192 37.3475 21.1985 37.3376 21.2039C37.3328 21.2065 37.3291 21.2084 37.3263 21.2099C37.3249 21.2107 37.3238 21.2112 37.3231 21.2116C37.3223 21.212 37.322 21.2122 37.322 21.2122L37.7692 22.1066ZM37.8588 22.0584C37.997 21.9819 38.1933 21.8759 38.3926 21.8282L38.1602 20.8556C37.8115 20.9389 37.5053 21.1111 37.3744 21.1836L37.8588 22.0584ZM38.3926 21.8282C38.6525 21.7662 38.9745 21.7753 39.3887 21.9778L39.8279 21.0794C39.218 20.7812 38.6592 20.7364 38.1602 20.8556L38.3926 21.8282ZM39.3887 21.9778L39.3887 21.9778L40.0145 21.1978C39.9568 21.1515 39.8943 21.1118 39.8279 21.0794L39.3887 21.9778ZM39.3887 21.9778C40.9713 23.2475 41.3025 24.7933 41.4682 26.4129L42.463 26.3111C42.2894 24.6133 41.9177 22.7248 40.0145 21.1978L39.3887 21.9778ZM41.4682 26.4129C41.5345 27.0609 41.3671 27.4933 41.1314 27.7705L41.8933 28.4183C42.3303 27.9042 42.5528 27.1897 42.463 26.3111L41.4682 26.4129ZM41.1314 27.7705C40.8957 28.0478 40.5912 28.1703 40.3824 28.1979L40.5136 29.1893C40.9415 29.1327 41.4807 28.9036 41.8933 28.4183L41.1314 27.7705ZM40.3824 28.1979L40.3824 28.1979V29.1979C40.4263 29.1979 40.4701 29.195 40.5136 29.1893L40.3824 28.1979ZM40.3824 28.1979H35.9678V29.1979H40.3824V28.1979ZM35.9678 28.1979L35.9672 28.1979L35.8158 29.1864C35.8656 29.194 35.9164 29.1979 35.9678 29.1979V28.1979ZM35.8152 29.1979C35.8665 29.1979 35.9173 29.194 35.9672 29.1864L35.8158 28.1979L35.8152 28.1979V29.1979ZM31.4005 29.1979H35.8152V28.1979H31.4005V29.1979ZM31.2693 29.1893C31.3128 29.195 31.3567 29.1979 31.4005 29.1979V28.1979L31.4005 28.1979L31.2693 29.1893ZM29.8897 28.4183C30.3023 28.9036 30.8414 29.1327 31.2693 29.1893L31.4005 28.1979C31.1918 28.1703 30.8873 28.0478 30.6515 27.7705L29.8897 28.4183ZM29.32 26.3111C29.2301 27.1897 29.4526 27.9042 29.8897 28.4183L30.6515 27.7705C30.4158 27.4933 30.2485 27.0609 30.3148 26.4129L29.32 26.3111ZM31.7685 21.1978C29.8653 22.7248 29.4936 24.6133 29.32 26.3111L30.3148 26.4129C30.4804 24.7933 30.8117 23.2475 32.3943 21.9778L31.7685 21.1978ZM31.9551 21.0794C31.8887 21.1118 31.8261 21.1515 31.7685 21.1978L32.3943 21.9778L32.3943 21.9778L31.9551 21.0794ZM35.9672 28.198L35.9678 28.1979V27.1979C35.9164 27.1979 35.8656 27.2018 35.8158 27.2095L35.9672 28.198ZM35.9678 28.1979H40.3426V27.1979H35.9678V28.1979ZM40.4407 28.1882C40.6383 28.1487 40.9131 28.0273 41.1314 27.7705L40.3695 27.1228C40.3446 27.1521 40.3166 27.1733 40.2905 27.1879C40.2626 27.2035 40.2436 27.2078 40.2445 27.2077L40.4407 28.1882ZM41.1314 27.7705C41.367 27.4935 41.5345 27.0612 41.4682 26.4129L40.4734 26.5146C40.5159 26.9308 40.4047 27.0815 40.3695 27.1228L41.1314 27.7705ZM41.4682 26.4129C41.3044 24.8114 40.9787 23.2801 39.4375 22.0174L38.8038 22.7909C40.0307 23.7962 40.3174 24.9891 40.4734 26.5146L41.4682 26.4129ZM39.327 21.9487C38.9399 21.7734 38.6367 21.7699 38.3926 21.8282L38.625 22.8009C38.6462 22.7958 38.6704 22.7923 38.7066 22.7959C38.7451 22.7998 38.8121 22.8133 38.9143 22.8596L39.327 21.9487ZM38.3926 21.8282C38.1914 21.8763 38.0531 21.9543 37.9362 22.0183L38.4161 22.8956C38.5369 22.8295 38.5689 22.8143 38.625 22.8009L38.3926 21.8282ZM37.9362 22.0183C37.8838 22.0469 37.8321 22.0751 37.7692 22.1066L38.2164 23.001C38.2976 22.9604 38.3637 22.9242 38.4161 22.8956L37.9362 22.0183ZM37.7692 22.1066C37.5805 22.201 36.9079 22.5343 35.925 22.5518L35.9428 23.5516C37.1452 23.5302 37.9759 23.1213 38.2164 23.001L37.7692 22.1066ZM35.9005 23.5523C35.9204 23.5525 35.9402 23.552 35.9599 23.551L35.9078 22.5524L35.9074 22.5524L35.9005 23.5523ZM35.8868 23.5522C35.8914 23.5523 35.8959 23.5523 35.9005 23.5523L35.9074 22.5524C35.9036 22.5523 35.8999 22.5523 35.8962 22.5523L35.8868 23.5522ZM35.8868 22.5523C35.8831 22.5523 35.8793 22.5523 35.8756 22.5524L35.8825 23.5523C35.887 23.5523 35.8916 23.5523 35.8962 23.5522L35.8868 22.5523ZM35.8756 22.5524L35.8751 22.5524L35.823 23.551C35.8428 23.552 35.8626 23.5525 35.8825 23.5523L35.8756 22.5524ZM33.5665 23.001C33.807 23.1213 34.6378 23.5302 35.8402 23.5516L35.858 22.5518C34.875 22.5343 34.2025 22.201 34.0137 22.1066L33.5665 23.001ZM33.3669 22.8956C33.4192 22.9242 33.4854 22.9604 33.5665 23.001L34.0137 22.1066C33.9508 22.0751 33.8991 22.0469 33.8468 22.0183L33.3669 22.8956ZM33.3617 22.8927L33.3617 22.8927L33.852 22.0211L33.8519 22.0211L33.3617 22.8927ZM33.158 22.8009C33.214 22.8143 33.2461 22.8295 33.3668 22.8956L33.8468 22.0183C33.7298 21.9543 33.5916 21.8763 33.3903 21.8282L33.158 22.8009ZM32.8686 22.8596C32.9709 22.8133 33.0378 22.7998 33.0763 22.7959C33.1126 22.7923 33.1368 22.7958 33.158 22.8009L33.3903 21.8282C33.1463 21.7699 32.843 21.7734 32.456 21.9487L32.8686 22.8596ZM31.3096 26.5146C31.4656 24.9891 31.7522 23.7962 32.9792 22.7909L32.3454 22.0174C30.8042 23.2801 30.4786 24.8114 30.3148 26.4129L31.3096 26.5146ZM31.4134 27.1228C31.3783 27.0815 31.267 26.9308 31.3096 26.5146L30.3148 26.4129C30.2485 27.0612 30.416 27.4935 30.6515 27.7705L31.4134 27.1228ZM31.5385 27.2077C31.5394 27.2078 31.5204 27.2035 31.4925 27.1879C31.4663 27.1733 31.4383 27.1521 31.4134 27.1228L30.6515 27.7705C30.8698 28.0273 31.1446 28.1487 31.3422 28.1882L31.5385 27.2077ZM35.8152 27.1979H31.4404V28.1979H35.8152V27.1979ZM35.9672 27.2095C35.9173 27.2018 35.8665 27.1979 35.8152 27.1979V28.1979L35.8158 28.198L35.9672 27.2095Z" fill="black"/></g></svg>